{"title":"Saving Mr Banks 2013 DVDSCR x264 AC3-TiTAN","uid":9387905,"size":2225574305,"categoryP":"video","categoryS":"movies","magnet":"?xt=urn:btih:76f898b028f9225c1c2753a14788d48573ca8559&amp;dn=Saving+Mr+Banks+2013+DVDSCR+x264+AC3-TiTAN&amp;tr=udp%3A%2F%2Ftracker.openbittorrent.com%3A80&amp;tr=udp%3A%2F%2Fopen.demonii.com%3A1337&amp;tr=udp%3A%2F%2Ftracker.coppersurfer.tk%3A6969&amp;tr=udp%3A%2F%2Fexodus.desync.com%3A6969","seeders":4,"leechers":0,"uploader":"HeroMaster","files":-1,"time":1387830677,"description":"Saving Mr Banks 2013 DVDSCR x264 AC3-TiTAN\n\n\nIMDB: http://www.imdb.com/title/tt2140373/\n\n\nSource: DTeCH THX\n\nOk took 4:3 source did some cropping, re-sizing de-interlacing and a few other little tweaks.. came out pretty good.. Enjoy\n\n\nGeneral:\n\nFormat                                   : Matroska\nFormat version                           : Version 2\nFile size                                : 2.07 GiB\nDuration                                 : 2h 11mn\nOverall bit rate mode                    : Variable\nOverall bit rate                         : 2 264 Kbps\nEncoded date                             : UTC 2013-12-23 13:35:17\nWriting application                      : mkvmerge v6.5.0 ('Isn't she lovely') \n\n\nVideo:\n\nID                                       : 1\nFormat                                   : AVC\nFormat/Info                              : Advanced Video Codec\nFormat profile                           : &lt;a class=&quot;__cf_email__&quot; href=&quot;/cdn-cgi/l/email-protection&quot; data-cfemail=&quot;9bd3f2fcf3dbd7afb5aa&quot;&gt;[email&amp;#160;protected]&lt;/a&gt;&lt;script cf-hash='f9e31' type=&quot;text/javascript&quot;&gt;\n/* &lt;![CDATA[ */!function(){try{var t=&quot;currentScript&quot;in document?document.currentScript:function(){for(var t=document.getElementsByTagName(&quot;script&quot;),e=t.length;e--;)if(t[e].getAttribute(&quot;cf-hash&quot;))return t[e]}();if(t&amp;&amp;t.previousSibling){var e,r,n,i,c=t.previousSibling,a=c.getAttribute(&quot;data-cfemail&quot;);if(a){for(e=&quot;&quot;,r=parseInt(a.substr(0,2),16),n=2;a.length-n;n+=2)i=parseInt(a.substr(n,2),16)^r,e+=String.fromCharCode(i);e=document.createTextNode(e),c.parentNode.replaceChild(e,c)}}}catch(u){}}();/* ]]&gt; */&lt;/script&gt;\nFormat settings, CABAC                   : Yes\nFormat settings, ReFrames                : 3 frames\nCodec ID                                 : V_MPEG4/ISO/AVC\nDuration                                 : 2h 11mn\nBit rate mode                            : Variable\nBit rate                                 : 2 006 Kbps\nMaximum bit rate                         : 40.0 Mbps\nWidth                                    : 704 pixels\nHeight                                   : 308 pixels\nDisplay aspect ratio                     : 2.25:1\nFrame rate                               : 29.970 fps\nColor space                              : YUV\nChroma subsampling                       : 4:2:0\nBit depth                                : 8 bits\nScan type                                : Progressive\nBits/(Pixel*Frame)                       : 0.309\nStream size                              : 1.80 GiB (87%)\nWriting library                          : x264 core 140 r2377 1ca7bb9\nLanguage                                 : English\nDefault                                  : Yes\nForced                                   : No\n\n\nAudio:\n\nID                                       : 2\nFormat                                   : AC-3\nFormat/Info                              : Audio Coding 3\nMode extension                           : CM (complete main)\nFormat settings, Endianness              : Big\nCodec ID                                 : A_AC3\nDuration                                 : 2h 11mn\nBit rate mode                            : Constant\nBit rate                                 : 256 Kbps\nChannel(s)                               : 2 channels\nChannel positions                        : Front: L R\nSampling rate                            : 48.0 KHz\nBit depth                                : 16 bits\nCompression mode                         : Lossy\nDelay relative to video                  : 33ms\nStream size                              : 240 MiB (11%)\nLanguage                                 : English\nDefault                                  : Yes\nForced                                   : No\n\n\nGreetz and Respect:\n\n\nALL CREDIT Goes to TiTAN for Encoding and ABG for Distribution.\n\n\nPoster:\n\n &lt;a href=&quot;\nhttp://i.imgur.com/kpei7xQ.jpg&quot; rel=&quot;nofollow&quot; target=&quot;_NEW&quot;&gt;\nhttp://i.imgur.com/kpei7xQ.jpg&lt;/a&gt;\n\n\nScreenshots:\n\n &lt;a href=&quot;\nhttp://i.imgur.com/VCWPB1I.jpg&quot; rel=&quot;nofollow&quot; target=&quot;_NEW&quot;&gt;\nhttp://i.imgur.com/VCWPB1I.jpg&lt;/a&gt;\n\n\nSEED AND ENJOY!","torrent":{"xt":"urn:btih:76f898b028f9225c1c2753a14788d48573ca8559","amp;dn":"Saving+Mr+Banks+2013+DVDSCR+x264+AC3-TiTAN","amp;tr":["udp%3A%2F%2Ftracker.openbittorrent.com%3A80","udp%3A%2F%2Fopen.demonii.com%3A1337","udp%3A%2F%2Ftracker.coppersurfer.tk%3A6969","udp%3A%2F%2Fexodus.desync.com%3A6969"],"infoHash":"76f898b028f9225c1c2753a14788d48573ca8559","infoHashBuffer":{"type":"Buffer","data":[118,248,152,176,40,249,34,92,28,39,83,161,71,136,212,133,115,202,133,89]},"announce":[],"urlList":[]}}